#!OML:ASF H:\Male1\Project 1\Capture day 1\Session 1\Male1.ASF
:FULLY-SPECIFIED
:DEGREES
199
root 16.3846 15.5092 -0.521175 -12.1387 -96.5838 11.242
lowerback 6.8669 2.22744 -4.0255
upperback 2.01358 2.54762 -2.24945
thorax -1.84185 1.23862 -0.274776
lowerneck -4.0765 3.7493 9.25619
upperneck -1.30333 4.59826 -12.1658
head 0.80292 2.15008 -5.07231
rclavicle -1.64991e-014 2.8625e-014
rhumerus -43.7484 25.19 -98.8018
rradius 43.4589
rwrist -17.5499
rhand -12.0494 0.620659
rfingers 7.12502
rthumb 14.0094 -28.8873
lclavicle -1.64991e-014 2.8625e-014
lhumerus 7.95896 11.7052 16.5102
lradius 70.7113
lwrist 1.80983
lhand -58.1376 16.9676
lfingers 7.12502
lthumb -30.3771 44.4859
rfemur -1.78225 16.554 20.7375
rtibia 19.2313
rfoot -28.3894 -31.3788
rtoes -18.7066
lfemur -1.30721 -16.6274 -20.6227
ltibia 22.1276
lfoot -26.5598 29.4704
ltoes 2.12075
200
root 16.3765 15.5049 -0.497169 -11.2052 -96.8439 10.2102
lowerback 6.81838 2.25284 -3.83318
upperback 1.99606 2.59203 -2.38587
thorax -1.81949 1.25981 -0.524509
lowerneck -3.77883 3.8329 9.96614
upperneck -1.34086 4.707 -12.626
head 0.785498 2.20911 -5.33455
rclavicle 4.96962e-016 -1.74931e-014
rhumerus -43.9149 25.1951 -98.9901
rradius 43.98
rwrist -17.246
rhand -11.4588 0.768794
rfingers 7.12502
rthumb 14.5785 -28.6989
lclavicle 4.96962e-016 -1.74931e-014
lhumerus 4.74228 9.45322 17.95
lradius 73.522
lwrist 0.841871
lhand -57.4543 15.9719
lfingers 7.12502
lthumb -29.7252 43.6085
rfemur -1.74354 16.6326 20.5829
rtibia 19.3433
rfoot -28.2106 -31.3058
rtoes -19.4857
lfemur -1.04576 -16.5693 -20.8801
ltibia 22.008
lfoot -26.7734 29.6075
ltoes 2.43175
201
root 16.3635 15.5007 -0.473003 -7.84086 -96.9775 6.7933
lowerback 6.64456 2.28655 -3.93173
upperback 1.94035 2.62757 -2.65116
thorax -1.77307 1.27566 -0.740124
lowerneck -3.51101 3.82982 10.5047
upperneck -1.2781 4.71554 -12.7426
head 0.776619 2.2214 -5.46446
rclavicle -5.69518e-014 1.59028e-014
rhumerus -44.1487 25.0158 -99.2104
rradius 44.4496
rwrist -17.2473
rhand -11.6887 1.06056
rfingers 7.12502
rthumb 14.357 -28.423
lclavicle -5.69518e-014 1.59028e-014
lhumerus 1.96909 6.50955 19.2216
lradius 76.1138
lwrist 0.265771
lhand -58.7939 18.464
lfingers 7.12502
lthumb -31.0029 45.8649
rfemur -1.7497 16.5941 20.047
rtibia 19.4782
rfoot -28.1272 -31.1132
rtoes -20.122
lfemur -0.845918 -16.5121 -21.4767
ltibia 21.8899
lfoot -26.8926 29.7297
ltoes 2.57331
202
root 16.3606 15.4965 -0.456588 -5.56156 -97.0478 4.40953
lowerback 6.65068 2.24855 -4.16472
upperback 1.90957 2.55296 -2.77235
thorax -1.81157 1.23774 -0.730185
lowerneck -3.46247 3.91186 10.6955
upperneck -1.15086 4.83701 -12.6362
head 0.821076 2.28465 -5.45858
rclavicle 1.37161e-014 -1.43125e-014
rhumerus -44.3627 25.18 -99.4051
rradius 44.8685
rwrist -17.4994
rhand -12.3565 1.25908
rfingers 7.12502
rthumb 13.7135 -28.2691
lclavicle 1.37161e-014 -1.43125e-014
lhumerus -0.559079 3.73627 20.7705
lradius 78.7778
lwrist -0.600912
lhand -57.7687 17.2546
lfingers 7.12502
lthumb -30.0252 44.8373
rfemur -1.70447 16.7246 19.7226
rtibia 19.6108
rfoot -28.3146 -31.0673
rtoes -19.7614
lfemur -0.687925 -16.2276 -21.8512
ltibia 21.7934
lfoot -26.7301 29.6598
ltoes 2.32576
203
root 16.3584 15.4951 -0.4444 -5.2769 -97.1485 4.01702
lowerback 6.5667 2.20466 -4.31045
upperback 1.94922 2.49287 -2.73075
thorax -1.73073 1.20642 -0.596864
lowerneck -3.45084 4.01454 10.7083
upperneck -1.13226 4.97846 -12.5344
head 0.838368 2.35679 -5.42405
rclavicle 2.27608e-014 1.74931e-014
rhumerus -44.3744 25.435 -99.4286
rradius 45.1277
rwrist -17.8823
rhand -13.3017 1.12698
rfingers 7.12502
rthumb 12.8024 -28.4605
lclavicle 2.27608e-014 1.74931e-014
lhumerus -2.62185 1.01648 22.5913
lradius 81.3173
lwrist -1.65972
lhand -57.6957 16.348
lfingers 7.12502
lthumb -29.9555 43.9433
rfemur -1.62257 16.9726 19.7071
rtibia 19.6768
rfoot -28.5548 -31.1335
rtoes -19.1376
lfemur -0.567583 -16.0346 -21.9529
ltibia 21.7763
lfoot -26.6327 29.6212
ltoes 2.24508
